<svg width="1000" height="250" viewBox="0 0 1000 250" fill="none" xmlns="http://www.w3.org/2000/svg">
<path d="M400.402 77.7189C377.268 77.7189 361.437 84.9982 349.728 101.189C340.579 86.9826 321.936 77.7189 301.665 77.7189C283.641 77.7189 271.704 82.4296 259.777 94.7278V93.9217C259.777 89.5793 258.066 85.4148 255.02 82.3443C251.974 79.2738 247.842 77.5488 243.534 77.5488C239.226 77.5488 235.094 79.2738 232.048 82.3443C229.001 85.4148 227.29 89.5793 227.29 93.9217V229.075C227.29 233.717 229.12 238.169 232.376 241.451C235.632 244.733 240.048 246.577 244.653 246.577C249.258 246.577 253.676 244.733 256.932 241.451C260.188 238.169 262.018 233.717 262.018 229.075V152.965C262.018 123.778 273.205 110.184 297.234 110.184C318.569 110.184 329.385 123.539 329.385 149.871V229.075C329.385 233.717 331.215 238.169 334.471 241.451C337.728 244.733 342.144 246.577 346.749 246.577C351.354 246.577 355.771 244.733 359.027 241.451C362.283 238.169 364.112 233.717 364.112 229.075V152.686C364.112 122.896 374.228 110.184 397.932 110.184C420.187 110.184 431.476 124.673 431.476 153.248V229.075C431.476 233.717 433.305 238.169 436.561 241.451C439.818 244.733 444.234 246.577 448.839 246.577C453.444 246.577 457.86 244.733 461.117 241.451C464.374 238.169 466.202 233.717 466.202 229.075V145.959C466.151 103.24 441.574 77.7189 400.402 77.7189Z" fill="#FF8900"/>
<path d="M670.477 77.7189C647.346 77.7189 631.515 84.9982 619.808 101.189C610.657 86.9826 592.014 77.7189 571.744 77.7189C553.719 77.7189 541.782 82.4296 529.856 94.7278V93.9217C529.856 89.5793 528.145 85.4148 525.099 82.3443C522.052 79.2738 517.92 77.5488 513.612 77.5488C509.305 77.5488 505.173 79.2738 502.126 82.3443C499.08 85.4148 497.369 89.5793 497.369 93.9217V229.075C497.369 233.717 499.199 238.169 502.455 241.451C505.711 244.733 510.127 246.577 514.732 246.577C519.338 246.577 523.754 244.733 527.01 241.451C530.266 238.169 532.096 233.717 532.096 229.075V152.965C532.096 123.778 543.284 110.184 567.312 110.184C588.647 110.184 599.464 123.539 599.464 149.871V229.075C599.464 233.717 601.293 238.169 604.55 241.451C607.806 244.733 612.222 246.577 616.827 246.577C621.432 246.577 625.849 244.733 629.105 241.451C632.361 238.169 634.191 233.717 634.191 229.075V152.686C634.191 122.896 644.306 110.184 668.01 110.184C690.265 110.184 701.554 124.673 701.554 153.248V229.075C701.554 233.717 703.382 238.169 706.64 241.451C709.896 244.733 714.312 246.577 718.917 246.577C723.522 246.577 727.939 244.733 731.195 241.451C734.451 238.169 736.28 233.717 736.28 229.075V145.959C736.231 103.24 711.651 77.7189 670.477 77.7189Z" fill="#FF8900"/>
<path d="M893.993 94.2134V98.9192C881.846 85.0163 864.354 77.7197 842.93 77.7197C795.295 77.7197 759.377 115.253 759.377 165.022C759.377 210.988 796.567 246.995 844.043 246.995C864.718 246.995 882.482 238.915 893.993 224.548V229.789C893.993 234.431 895.823 238.882 899.079 242.165C902.335 245.447 906.753 247.291 911.358 247.291C915.963 247.291 920.379 245.447 923.635 242.165C926.891 238.882 928.721 234.431 928.721 229.789V94.2109C928.718 89.869 927.005 85.7059 923.957 82.6373C920.91 79.5687 916.777 77.8459 912.47 77.8479H910.244C908.112 77.8469 905.998 78.2695 904.028 79.0914C902.057 79.9133 900.266 81.1185 898.757 82.6382C897.247 84.1579 896.05 85.9623 895.233 87.9483C894.416 89.9344 893.994 92.0633 893.993 94.2134ZM894.551 162.776C894.551 191.312 871.769 214.528 843.764 214.528C816.838 214.528 794.09 190.829 794.09 162.776C794.09 133.778 816.374 110.182 843.764 110.182C872.717 110.182 894.551 132.791 894.551 162.776Z" fill="#FF8900"/>
<path d="M179.598 190.186L179.458 190.172C173.577 189.405 169.031 192.538 162.736 196.864C153.474 203.234 141.948 211.162 119.661 212.108C97.7885 212.355 78.3732 205.396 63.4601 191.922C50.0682 179.821 39.8531 162.805 36.4831 144.011C30.1857 108.909 45.4388 65.9873 91.5058 49.2546C100.565 46.2226 110.092 44.8647 119.63 45.2464C136.994 45.9489 153.403 52.2669 167.108 63.5149C170.543 66.3169 174.931 67.6492 179.33 67.2256C183.728 66.802 187.786 64.6563 190.632 61.2495C194.846 55.4492 195.736 49.7476 193.221 43.9941C184.929 24.9886 143.765 12.4193 129.519 10.8491C124.759 10.2087 119.962 9.88752 115.159 9.8877C88.0136 9.8877 61.313 20.1127 40.1637 38.9482C14.3409 61.9373 -0.293343 94.6436 0.0123526 128.676C-0.396057 155.942 9.33485 183.07 27.4198 205.127C45.6025 227.313 70.1488 241.755 96.5413 245.8C102.714 246.881 108.967 247.423 115.233 247.423C142.249 247.423 168.341 237.747 188.702 220.179C193.955 215.944 195.878 209.101 193.794 202.258C191.684 195.341 186.247 190.719 179.598 190.186Z" fill="#FF8900"/>
<path d="M165.784 106.578C163.544 107.007 161.41 107.88 159.507 109.146C157.604 110.412 155.968 112.046 154.696 113.953C152.012 117.962 148.393 121.246 144.157 123.517C139.92 125.787 135.196 126.974 130.398 126.974C125.6 126.974 120.874 125.787 116.639 123.517C112.402 121.246 108.783 117.962 106.1 113.953C104.826 112.046 103.192 110.413 101.288 109.147C99.3849 107.882 97.2514 107.009 95.0113 106.58C93.9161 106.368 92.8032 106.26 91.6878 106.26C88.54 106.269 85.4538 107.14 82.7594 108.78C80.0649 110.421 77.8635 112.769 76.3908 115.573C74.918 118.377 74.2293 121.532 74.398 124.7C74.5669 127.869 75.5871 130.931 77.3495 133.56C83.2126 142.307 91.115 149.47 100.364 154.422C109.612 159.374 119.925 161.963 130.398 161.963C140.87 161.963 151.183 159.374 160.431 154.422C169.679 149.47 177.583 142.307 183.446 133.56C185.366 130.694 186.402 127.318 186.42 123.859C186.439 120.4 185.441 117.013 183.551 114.125C181.661 111.238 178.964 108.98 175.802 107.636C172.64 106.292 169.154 105.926 165.784 106.578Z" fill="#FF8900"/>
<path d="M984.744 219.463C984.744 216.012 982.405 212.869 976.686 212.869H968.859V235.162H972.431V226.214H976.443L981.721 235.162H985.859L980.014 225.704C983.196 224.716 984.744 222.487 984.744 219.463ZM972.421 223.219V215.989H977.068C979.532 215.989 981.048 217.168 981.048 219.495C981.048 222.423 979.122 223.219 977.003 223.219H972.421Z" fill="#FF8900"/>
<path d="M976.089 203.057C971.882 203.059 967.77 204.318 964.273 206.676C960.776 209.033 958.051 212.382 956.442 216.3C954.833 220.218 954.413 224.529 955.233 228.688C956.054 232.846 958.08 236.667 961.054 239.665C964.029 242.664 967.819 244.707 971.944 245.535C976.07 246.364 980.346 245.941 984.234 244.32C988.122 242.699 991.445 239.953 993.784 236.428C996.124 232.904 997.374 228.76 997.378 224.52C997.373 218.83 995.128 213.374 991.137 209.351C987.145 205.327 981.734 203.063 976.089 203.057ZM976.089 242.855C972.489 242.855 968.971 241.779 965.979 239.763C962.986 237.748 960.653 234.883 959.276 231.531C957.898 228.179 957.538 224.491 958.241 220.933C958.943 217.375 960.677 214.107 963.222 211.541C965.768 208.976 969.009 207.23 972.54 206.522C976.07 205.815 979.729 206.178 983.054 207.567C986.38 208.956 989.222 211.307 991.221 214.324C993.22 217.34 994.287 220.887 994.286 224.515C994.281 229.377 992.362 234.039 988.949 237.477C985.538 240.916 980.913 242.85 976.089 242.855Z" fill="#FF8900"/>
</svg>
